D:\PredSimResults\Vitruvian_Man\IG_v35ms_ATx70.mot
version=1
nRows=10
nColumns=31
inDegrees=yes
endheader
                time	         pelvis_tilt	           pelvis_tx	           pelvis_ty	       hip_flexion_r	        knee_angle_r	       ankle_angle_r	       hip_flexion_l	        knee_angle_l	       ankle_angle_l	    lumbar_extension	          arm_flex_r	          arm_flex_l	hamstrings_r/activation	bifemsh_r/activation	glut_max_r/activation	iliopsoas_r/activation	rect_fem_r/activation	  vasti_r/activation	gastroc_r/activation	 soleus_r/activation	tib_ant_r/activation	hamstrings_l/activation	bifemsh_l/activation	glut_max_l/activation	iliopsoas_l/activation	rect_fem_l/activation	  vasti_l/activation	gastroc_l/activation	 soleus_l/activation	tib_ant_l/activation	
          0.56761862	         -5.37180475	          1.96580092	          0.99692081	         28.31471743	        -12.66175811	          6.56893120	          3.79074532	        -46.16918756	        -20.11863051	         -6.98698966	         49.21641980	         49.21640577	          0.68221489	          0.13477444	          0.67307312	          0.05000000	          0.05000000	          0.07177887	          0.07177887	          0.07177887	          0.68200509	          0.05000000	          0.70134353	          0.05000000	          0.83954420	          0.97837307	          0.05403112	          0.17509459	          0.11029189	          0.38926790	
          0.57329481	         -5.45655865	          1.98659106	          0.99398160	         27.89022855	        -13.48801916	          5.69932570	          4.76842268	        -47.43404720	        -19.39479203	         -6.73666978	         48.51644759	         48.51643321	          0.62325321	          0.12312631	          0.76282361	          0.05000000	          0.05000000	          0.06557525	          0.06557525	          0.06557525	          0.76930351	          0.05000027	          0.73914386	          0.05000000	          0.76698503	          0.98431026	          0.05000000	          0.15996172	          0.10075971	          0.39673586	
          0.57897099	         -5.55327593	          2.00720691	          0.99083360	         27.58540691	        -14.84918884	          4.99834672	          5.86082127	        -48.72891487	        -18.62211076	         -6.48994110	         47.90151281	         47.90149806	          0.56938739	          0.11248489	          0.82793511	          0.05000000	          0.05000000	          0.05990779	          0.05990779	          0.05990779	          0.83263609	          0.06557525	          0.81075602	          0.05000000	          0.70069693	          0.98861753	          0.05000000	          0.14613673	          0.09205136	          0.38578631	
          0.58464718	         -5.66259923	          2.02747303	          0.98765980	         27.46978558	        -16.53915502	          4.57382842	          7.08562376	        -50.04953951	        -17.86613552	         -6.27256879	         47.39273271	         47.39271758	          0.52017703	          0.10276318	          0.87517169	          0.05000000	          0.05000000	          0.05473015	          0.05473014	          0.05473014	          0.87858212	          0.05990779	          0.86270874	          0.05000000	          0.64013790	          0.99174234	          0.05000000	          0.13350660	          0.08409565	          0.37427014	
          0.59032336	         -5.78866807	          2.04728733	          0.98456430	         27.62517923	        -18.59826118	          3.94772010	          8.45354871	        -51.38899764	        -17.15022685	         -6.09389072	         47.00371013	         47.00369462	          0.47521977	          0.09388169	          0.90944052	          0.05000000	          0.05000000	          0.05000000	          0.05000000	          0.05000000	          0.91191470	          0.05473015	          0.90039900	          0.05000000	          0.58481280	          0.99400929	          0.05000000	          0.12196804	          0.07682753	          0.37753429	
          0.59599955	         -5.92007793	          2.06673828	          0.98152139	         28.01723151	        -21.07670619	          3.72306213	          9.93007318	        -52.72906408	        -16.40441908	         -5.95316368	         46.73443927	         46.73442338	          0.43414802	          0.08576779	          0.93430161	          0.05000000	          0.05000000	          0.31080133	          0.05000000	          0.05665205	          0.83310078	          0.05000000	          0.92774223	          0.05000000	          0.53426927	          0.95708386	          0.05000000	          0.11142673	          0.07018757	          0.38890227	
          0.60167574	         -6.04365180	          2.08599916	          0.97852457	         28.48294143	        -23.77594617	          4.25486058	         11.46540712	        -54.03617221	        -15.57241709	         -5.84118789	         46.56991329	         46.56989703	          0.39662597	          0.07835515	          0.95233764	          0.05000000	          0.05473030	          0.50000547	          0.25216289	          0.31562721	          0.76109850	          0.05000000	          0.94757900	          0.05000000	          0.48809405	          0.90521323	          0.05000000	          0.10179647	          0.06412148	          0.38785424	
          0.60735192	         -6.16578962	          2.10516870	          0.97562077	         28.88743188	        -26.44715019	          5.44183789	         13.04392767	        -55.28281881	        -14.67224430	         -5.73743321	         46.49457435	         46.49455774	          0.36234683	          0.07158316	          0.96542228	          0.05000000	          0.05000014	          0.63726783	          0.23036925	          0.31034946	          0.69531915	          0.05000000	          0.96197002	          0.05000000	          0.44590962	          0.84907981	          0.05000000	          0.09299852	          0.05857966	          0.38943800	
          0.61302811	         -6.29952339	          2.12429188	          0.97286099	         29.14156592	        -28.84411834	          6.69691815	         14.66686241	        -56.45319798	        -13.73649525	         -5.62122362	         46.49818350	         46.49816656	          0.33103034	          0.06539645	          0.97491483	          0.05000000	          0.05000000	          0.73684787	          0.21045917	          0.37943520	          0.63522490	          0.05000000	          0.97241030	          0.05000000	          0.40737106	          0.77569652	          0.05000000	          0.08496095	          0.05351681	          0.38636613	
          0.61870429	         -6.45555808	          2.14338667	          0.97028158	         29.20982967	        -30.86553355	          7.83206682	         16.33763117	        -57.54127248	        -12.77768324	         -5.47809345	         46.57622789	         46.57621065	          0.30242043	          0.05974444	          0.98180141	          0.05000000	          0.05000000	          0.80909042	          0.24985215	          0.43882434	          0.58032441	          0.05000000	          0.97998444	          0.05000000	          0.37216327	          0.70865551	          0.05000000	          0.07761805	          0.05000000	          0.38762474	
